<?xml version="1.0" encoding="iso-8859-1"?>
<!-- Generator: Adobe Illustrator 19.0.0, SVG Export Plug-In . SVG Version: 6.00 Build 0)  -->
<svg version="1.1" id="Layer_1" xmlns="http://www.w3.org/2000/svg" xmlns:xlink="http://www.w3.org/1999/xlink" x="0px" y="0px"
	 viewBox="0 0 453.6 453.6" style="enable-background:new 0 0 453.6 453.6;" xml:space="preserve">
<ellipse style="fill:#F9D710;" cx="123.2" cy="18.4" rx="122.4" ry="18.4"/>
<path style="fill:#FCB80D;" d="M123.2,0c68,0,122.4,8,122.4,18.4s-55.2,18.4-122.4,18.4"/>
<g>
	<path style="fill:#F99410;" d="M245.6,18.4L245.6,18.4C244,28,189.6,36,123.2,36C56,36.8,2.4,28.8,0.8,18.4l0,0V64c0,0,0,0,0,0.8
		c0,0,0,0,0,0.8l0,0l0,0c2.4,9.6,56,17.6,122.4,17.6s120-8,122.4-17.6l0,0l0,0c0,0,0,0,0-0.8c0,0,0,0,0-0.8V18.4z"/>
	<path style="fill:#F99410;" d="M0.8,64.8L0.8,64.8"/>
</g>
<path style="fill:#ED8406;" d="M123.2,82.4c66.4,0,120-8,122.4-17.6l0,0l0,0c0,0,0,0,0-0.8c0,0,0,0,0-0.8V18.4l0,0
	C244,28,189.6,36,123.2,36"/>
<g>
	<path style="fill:#FCB80D;" d="M20.8,74.4c3.2,0.8,6.4,1.6,10.4,2.4V30.4c-4-0.8-7.2-1.6-10.4-2.4V74.4z"/>
	<path style="fill:#FCB80D;" d="M53.6,79.2C56.8,79.2,60,80,64,80V34.4c-3.2,0-7.2-0.8-10.4-0.8V79.2z"/>
	<path style="fill:#FCB80D;" d="M85.6,81.6c3.2,0,6.4,0,10.4,0.8V36c-3.2,0-7.2,0-10.4-0.8V81.6z"/>
	<path style="fill:#FCB80D;" d="M117.6,82.4c1.6,0,3.2,0,4.8,0s3.2,0,4.8,0V36.8c-1.6,0-3.2,0-4.8,0s-3.2,0-4.8,0V82.4z"/>
</g>
<g>
	<path style="fill:#F99410;" d="M150.4,82.4c3.2,0,7.2,0,10.4-0.8V35.2c-3.2,0-7.2,0-10.4,0.8V82.4z"/>
	<path style="fill:#F99410;" d="M182.4,80.8c3.2,0,7.2-0.8,10.4-0.8V32.8c-3.2,0-6.4,0.8-10.4,0.8V80.8z"/>
	<path style="fill:#F99410;" d="M215.2,76.8c4-0.8,7.2-1.6,10.4-2.4V28c-3.2,0.8-6.4,1.6-10.4,2.4V76.8z"/>
</g>
<ellipse style="fill:#F9D710;" cx="123.2" cy="110.4" rx="122.4" ry="18.4"/>
<path style="fill:#FCB80D;" d="M123.2,92c68,0,122.4,8,122.4,18.4s-55.2,18.4-122.4,18.4"/>
<g>
	<path style="fill:#F99410;" d="M245.6,111.2L245.6,111.2c-1.6,9.6-56,17.6-122.4,17.6s-120.8-8-122.4-17.6l0,0v45.6c0,0,0,0,0,0.8
		c0,0,0,0,0,0.8l0,0l0,0c2.4,9.6,56,17.6,122.4,17.6s120-8,122.4-17.6l0,0l0,0c0,0,0,0,0-0.8c0,0,0,0,0-0.8V111.2z"/>
	<path style="fill:#F99410;" d="M0.8,156.8C0.8,156.8,0.8,157.6,0.8,156.8"/>
</g>
<path style="fill:#ED8406;" d="M123.2,175.2c66.4,0,120-8,122.4-17.6l0,0l0,0c0,0,0,0,0-0.8c0,0,0,0,0-0.8v-45.6l0,0
	c-1.6,9.6-56,17.6-122.4,17.6"/>
<g>
	<path style="fill:#FCB80D;" d="M20.8,167.2c3.2,0.8,6.4,1.6,10.4,2.4v-46.4c-4-0.8-7.2-1.6-10.4-2.4V167.2z"/>
	<path style="fill:#FCB80D;" d="M53.6,172c3.2,0,6.4,0.8,10.4,0.8v-46.4c-3.2,0-7.2-0.8-10.4-0.8V172z"/>
	<path style="fill:#FCB80D;" d="M85.6,174.4c3.2,0,6.4,0,10.4,0.8v-46.4c-3.2,0-7.2,0-10.4-0.8V174.4z"/>
	<path style="fill:#FCB80D;" d="M117.6,175.2c1.6,0,3.2,0,4.8,0s3.2,0,4.8,0v-46.4c-1.6,0-3.2,0-4.8,0s-3.2,0-4.8,0V175.2z"/>
</g>
<g>
	<path style="fill:#F99410;" d="M150.4,175.2c3.2,0,7.2,0,10.4-0.8V128c-3.2,0-7.2,0-10.4,0.8V175.2z"/>
	<path style="fill:#F99410;" d="M182.4,172.8c3.2,0,7.2-0.8,10.4-0.8v-46.4c-3.2,0-6.4,0.8-10.4,0.8V172.8z"/>
	<path style="fill:#F99410;" d="M215.2,168.8c4-0.8,7.2-1.6,10.4-2.4V120c-3.2,0.8-6.4,1.6-10.4,2.4V168.8z"/>
</g>
<ellipse style="fill:#F9D710;" cx="123.2" cy="203.2" rx="122.4" ry="18.4"/>
<path style="fill:#FCB80D;" d="M123.2,184.8c68,0,122.4,8,122.4,18.4s-55.2,18.4-122.4,18.4"/>
<g>
	<path style="fill:#F99410;" d="M245.6,204L245.6,204c-1.6,9.6-56,17.6-122.4,17.6S2.4,213.6,0.8,204l0,0v45.6c0,0,0,0,0,0.8
		c0,0,0,0,0,0.8l0,0l0,0c2.4,9.6,56,17.6,122.4,17.6s120-8,122.4-17.6l0,0l0,0c0,0,0,0,0-0.8c0,0,0,0,0-0.8V204z"/>
	<path style="fill:#F99410;" d="M0.8,249.6L0.8,249.6"/>
</g>
<path style="fill:#ED8406;" d="M123.2,268c66.4,0,120-8,122.4-17.6l0,0l0,0c0,0,0,0,0-0.8c0,0,0,0,0-0.8v-45.6l0,0
	c-1.6,9.6-56,17.6-122.4,17.6"/>
<g>
	<path style="fill:#FCB80D;" d="M20.8,260c3.2,0.8,6.4,1.6,10.4,2.4V216c-4-0.8-7.2-1.6-10.4-2.4V260z"/>
	<path style="fill:#FCB80D;" d="M53.6,264.8c3.2,0,6.4,0.8,10.4,0.8v-46.4c-3.2,0-7.2-0.8-10.4-0.8V264.8z"/>
	<path style="fill:#FCB80D;" d="M85.6,267.2c3.2,0,6.4,0,10.4,0.8v-46.4c-3.2,0-7.2,0-10.4-0.8V267.2z"/>
	<path style="fill:#FCB80D;" d="M117.6,268c1.6,0,3.2,0,4.8,0s3.2,0,4.8,0v-46.4c-1.6,0-3.2,0-4.8,0s-3.2,0-4.8,0V268z"/>
</g>
<g>
	<path style="fill:#F99410;" d="M150.4,267.2c3.2,0,7.2,0,10.4-0.8V220c-3.2,0-7.2,0-10.4,0.8V267.2z"/>
	<path style="fill:#F99410;" d="M182.4,265.6c3.2,0,7.2-0.8,10.4-0.8v-46.4c-3.2,0-6.4,0.8-10.4,0.8V265.6z"/>
	<path style="fill:#F99410;" d="M215.2,261.6c4-0.8,7.2-1.6,10.4-2.4v-46.4c-3.2,0.8-6.4,1.6-10.4,2.4V261.6z"/>
</g>
<ellipse style="fill:#F9D710;" cx="123.2" cy="296" rx="122.4" ry="18.4"/>
<path style="fill:#FCB80D;" d="M123.2,277.6c68,0,122.4,8,122.4,18.4s-55.2,18.4-122.4,18.4"/>
<g>
	<path style="fill:#F99410;" d="M245.6,296L245.6,296c-1.6,9.6-56,17.6-122.4,17.6C56,314.4,2.4,306.4,0.8,296l0,0v45.6
		c0,0,0,0,0,0.8c0,0,0,0,0,0.8l0,0l0,0c2.4,9.6,56,17.6,122.4,17.6s120-8,122.4-17.6l0,0l0,0c0,0,0,0,0-0.8c0,0,0,0,0-0.8V296z"/>
	<path style="fill:#F99410;" d="M0.8,342.4L0.8,342.4"/>
</g>
<path style="fill:#ED8406;" d="M123.2,360.8c66.4,0,120-8,122.4-17.6l0,0l0,0c0,0,0,0,0-0.8c0,0,0,0,0-0.8V296l0,0
	c-1.6,9.6-56,17.6-122.4,17.6"/>
<g>
	<path style="fill:#FCB80D;" d="M20.8,352c3.2,0.8,6.4,1.6,10.4,2.4V308c-4-0.8-7.2-1.6-10.4-1.6V352z"/>
	<path style="fill:#FCB80D;" d="M53.6,357.6c3.2,0,6.4,0.8,10.4,0.8V312c-3.2,0-7.2-0.8-10.4-0.8V357.6z"/>
	<path style="fill:#FCB80D;" d="M85.6,360c3.2,0,6.4,0,10.4,0.8v-46.4c-3.2,0-7.2,0-10.4-0.8V360z"/>
	<path style="fill:#FCB80D;" d="M117.6,360.8c1.6,0,3.2,0,4.8,0s3.2,0,4.8,0v-46.4c-1.6,0-3.2,0-4.8,0s-3.2,0-4.8,0V360.8z"/>
</g>
<g>
	<path style="fill:#F99410;" d="M150.4,360c3.2,0,7.2,0,10.4-0.8v-46.4c-3.2,0-7.2,0-10.4,0.8V360z"/>
	<path style="fill:#F99410;" d="M182.4,358.4c3.2,0,7.2-0.8,10.4-0.8v-46.4c-3.2,0-6.4,0.8-10.4,0.8V358.4z"/>
	<path style="fill:#F99410;" d="M215.2,354.4c4-0.8,7.2-1.6,10.4-2.4v-46.4c-3.2,0.8-6.4,1.6-10.4,1.6V354.4z"/>
</g>
<ellipse style="fill:#F9D710;" cx="123.2" cy="388.8" rx="122.4" ry="18.4"/>
<path style="fill:#FCB80D;" d="M123.2,370.4c68,0,122.4,8,122.4,18.4s-55.2,18.4-122.4,18.4"/>
<g>
	<path style="fill:#F99410;" d="M245.6,388.8L245.6,388.8c-1.6,9.6-56,17.6-122.4,17.6s-120.8-8-122.4-17.6l0,0v45.6c0,0,0,0,0,0.8
		c0,0,0,0,0,0.8l0,0l0,0c2.4,9.6,56,17.6,122.4,17.6s120-8,122.4-17.6l0,0l0,0c0,0,0,0,0-0.8c0,0,0,0,0-0.8V388.8z"/>
	<path style="fill:#F99410;" d="M0.8,434.4C0.8,435.2,0.8,435.2,0.8,434.4"/>
</g>
<path style="fill:#ED8406;" d="M123.2,452.8c66.4,0,120-8,122.4-17.6l0,0l0,0c0,0,0,0,0-0.8c0,0,0,0,0-0.8V388l0,0
	c-1.6,9.6-56,17.6-122.4,17.6"/>
<g>
	<path style="fill:#FCB80D;" d="M20.8,444.8c3.2,0.8,6.4,1.6,10.4,2.4v-46.4c-4-0.8-7.2-1.6-10.4-1.6V444.8z"/>
	<path style="fill:#FCB80D;" d="M53.6,449.6c3.2,0,6.4,0.8,10.4,0.8V404c-3.2,0-7.2-0.8-10.4-0.8V449.6z"/>
	<path style="fill:#FCB80D;" d="M85.6,452c3.2,0,6.4,0,10.4,0.8v-46.4c-3.2,0-7.2,0-10.4-0.8V452z"/>
	<path style="fill:#FCB80D;" d="M117.6,452.8c1.6,0,3.2,0,4.8,0s3.2,0,4.8,0v-46.4c-1.6,0-3.2,0-4.8,0s-3.2,0-4.8,0V452.8z"/>
</g>
<g>
	<path style="fill:#F99410;" d="M150.4,452.8c3.2,0,7.2,0,10.4-0.8v-46.4c-3.2,0-7.2,0-10.4,0.8V452.8z"/>
	<path style="fill:#F99410;" d="M182.4,450.4c3.2,0,7.2-0.8,10.4-0.8v-46.4c-3.2,0-6.4,0.8-10.4,0.8V450.4z"/>
	<path style="fill:#F99410;" d="M215.2,447.2c4-0.8,7.2-1.6,10.4-2.4v-46.4c-3.2,0.8-6.4,1.6-10.4,1.6V447.2z"/>
</g>
<rect x="272" y="80" style="fill:#34B515;" width="180.8" height="302.4"/>
<polyline style="fill:#2AA507;" points="272,80 452,80 452,382.4 "/>
<rect x="301.6" y="108.8" style="fill:#2E8704;" width="121.6" height="244"/>
<polyline style="fill:#287003;" points="301.6,108.8 423.2,108.8 423.2,353.6 "/>
<ellipse style="fill:#FFFFFF;" cx="362.4" cy="231.2" rx="45.6" ry="42.4"/>
<path style="fill:#E5E5E5;" d="M362.4,188.8c25.6,0,45.6,19.2,45.6,42.4s-20.8,42.4-45.6,42.4"/>
<g>
</g>
<g>
</g>
<g>
</g>
<g>
</g>
<g>
</g>
<g>
</g>
<g>
</g>
<g>
</g>
<g>
</g>
<g>
</g>
<g>
</g>
<g>
</g>
<g>
</g>
<g>
</g>
<g>
</g>
</svg>
